<svg width="95" height="95" viewBox="0 0 95 95" fill="none" xmlns="http://www.w3.org/2000/svg">
<g id="float button">
<g id="Ellipse 96" filter="url(#filter0_d_1_1129)">
<circle cx="47.5353" cy="40.3499" r="35.1299" fill="#4ABB82"/>
</g>
<path id="float_button_help" d="M64.6821 60.0554C64.6821 60.0554 58.9044 57.7821 54.2305 55.9632H34.5781C33.4264 55.9283 32.3356 55.4378 31.5453 54.5994C30.7549 53.7611 30.3295 52.6433 30.3625 51.4916V25.2995C30.3306 24.1486 30.7565 23.032 31.5468 22.1947C32.3371 21.3574 33.4272 20.8678 34.5781 20.8333H60.468C61.6193 20.8674 62.7099 21.3571 63.5004 22.1948C64.2908 23.0325 64.7164 24.1498 64.6836 25.3011V47.8622L64.6821 60.0554ZM59.6077 45.3688C59.5159 45.2509 59.4007 45.1534 59.2692 45.0825C59.1377 45.0115 58.993 44.9686 58.8441 44.9565C58.6951 44.9443 58.5453 44.9633 58.4041 45.0121C58.2629 45.0609 58.1334 45.1385 58.0238 45.24C57.9871 45.272 54.3281 48.5258 47.5199 48.5258C40.7961 48.5258 37.0809 45.2946 37.0145 45.2361C36.9048 45.1353 36.7754 45.0583 36.6344 45.0099C36.4934 44.9616 36.3439 44.943 36.1954 44.9554C36.0469 44.9677 35.9025 45.0106 35.7714 45.0815C35.6403 45.1524 35.5253 45.2497 35.4337 45.3672C35.2374 45.6121 35.1414 45.9224 35.1651 46.2353C35.1859 46.5468 35.3256 46.8384 35.5555 47.0496C35.7296 47.2057 39.8905 50.9107 47.5207 50.9107C55.1509 50.9107 59.3134 47.2065 59.4875 47.0496C59.7173 46.8383 59.857 46.5468 59.8779 46.2353C59.9016 45.9231 59.8062 45.6135 59.6109 45.3688H59.6077Z" fill="white"/>
</g>
<defs>
<filter id="filter0_d_1_1129" x="0.405396" y="0.220032" width="94.2598" height="94.2598" filterUnits="userSpaceOnUse" color-interpolation-filters="sRGB">
<feFlood flood-opacity="0" result="BackgroundImageFix"/>
<feColorMatrix in="SourceAlpha" type="matrix" values="0 0 0 0 0 0 0 0 0 0 0 0 0 0 0 0 0 0 127 0" result="hardAlpha"/>
<feOffset dy="7"/>
<feGaussianBlur stdDeviation="6"/>
<feComposite in2="hardAlpha" operator="out"/>
<feColorMatrix type="matrix" values="0 0 0 0 0 0 0 0 0 0 0 0 0 0 0 0 0 0 0.25 0"/>
<feBlend mode="normal" in2="BackgroundImageFix" result="effect1_dropShadow_1_1129"/>
<feBlend mode="normal" in="SourceGraphic" in2="effect1_dropShadow_1_1129" result="shape"/>
</filter>
</defs>
</svg>
