<svg width="24" height="25" viewBox="0 0 24 25" fill="none" xmlns="http://www.w3.org/2000/svg">
<g id="Icon / Instagram">
<path id="Vector" fill-rule="evenodd" clip-rule="evenodd" d="M16 3.44144H8C5.23858 3.44144 3 5.68002 3 8.44144V16.4414C3 19.2028 5.23858 21.4414 8 21.4414H16C18.7614 21.4414 21 19.2028 21 16.4414V8.44144C21 5.68002 18.7614 3.44144 16 3.44144ZM19.25 16.4414C19.2445 18.234 17.7926 19.6859 16 19.6914H8C6.20735 19.6859 4.75549 18.234 4.75 16.4414V8.44144C4.75549 6.64879 6.20735 5.19693 8 5.19144H16C17.7926 5.19693 19.2445 6.64879 19.25 8.44144V16.4414ZM16.75 8.69144C17.3023 8.69144 17.75 8.24372 17.75 7.69144C17.75 7.13916 17.3023 6.69144 16.75 6.69144C16.1977 6.69144 15.75 7.13916 15.75 7.69144C15.75 8.24372 16.1977 8.69144 16.75 8.69144ZM12 7.94144C9.51472 7.94144 7.5 9.95616 7.5 12.4414C7.5 14.9267 9.51472 16.9414 12 16.9414C14.4853 16.9414 16.5 14.9267 16.5 12.4414C16.5027 11.2471 16.0294 10.101 15.1849 9.25652C14.3404 8.41203 13.1943 7.93878 12 7.94144ZM9.25 12.4414C9.25 13.9602 10.4812 15.1914 12 15.1914C13.5188 15.1914 14.75 13.9602 14.75 12.4414C14.75 10.9226 13.5188 9.69144 12 9.69144C10.4812 9.69144 9.25 10.9226 9.25 12.4414Z" fill="#EEF0F3"/>
</g>
</svg>
