<svg width="45" height="45" viewBox="0 0 45 45" fill="none" xmlns="http://www.w3.org/2000/svg">
<g id="other">
<g id="Group">
<g id="Layer 2">
<path id="Vector" d="M12.4165 21.7295C10.5129 21.7295 8.65197 21.165 7.06914 20.1074C5.48632 19.0498 4.25266 17.5466 3.52417 15.7878C2.79567 14.0291 2.60507 12.0938 2.97645 10.2268C3.34783 8.35968 4.26453 6.64467 5.61061 5.29859C6.95669 3.95251 8.6717 3.03582 10.5388 2.66444C12.4058 2.29306 14.3411 2.48366 16.0998 3.21216C17.8586 3.94065 19.3618 5.17431 20.4194 6.75713C21.477 8.33996 22.0415 10.2009 22.0415 12.1045C22.0386 14.6563 21.0236 17.1028 19.2192 18.9072C17.4148 20.7116 14.9683 21.7266 12.4165 21.7295ZM12.4165 5.2295C11.0568 5.2295 9.72755 5.63271 8.59696 6.38814C7.46638 7.14358 6.58519 8.21731 6.06484 9.47355C5.54448 10.7298 5.40834 12.1121 5.67361 13.4457C5.93888 14.7794 6.59366 16.0044 7.55515 16.9659C8.51664 17.9273 9.74164 18.5821 11.0753 18.8474C12.4089 19.1127 13.7912 18.9765 15.0475 18.4562C16.3037 17.9358 17.3774 17.0546 18.1329 15.924C18.8883 14.7935 19.2915 13.4642 19.2915 12.1045C19.2896 10.2817 18.5646 8.53417 17.2757 7.24528C15.9868 5.95639 14.2393 5.23144 12.4165 5.2295Z" fill="#4ABB82"/>
<g id="Group_2">
<path id="Vector_2" d="M15.1665 41.8963H7.83317C6.49648 41.8949 5.21496 41.3632 4.26978 40.418C3.3246 39.4729 2.79296 38.1913 2.7915 36.8547V29.5213C2.79296 28.1846 3.3246 26.9031 4.26978 25.9579C5.21496 25.0128 6.49648 24.4811 7.83317 24.4797H15.1665C16.5032 24.4811 17.7847 25.0128 18.7299 25.9579C19.6751 26.9031 20.2067 28.1846 20.2082 29.5213V36.8547C20.2067 38.1913 19.6751 39.4729 18.7299 40.418C17.7847 41.3632 16.5032 41.8949 15.1665 41.8963ZM7.83317 27.2297C7.22553 27.2301 6.64292 27.4717 6.21325 27.9014C5.78359 28.3311 5.54199 28.9137 5.5415 29.5213V36.8547C5.54199 37.4623 5.78359 38.0449 6.21325 38.4746C6.64292 38.9042 7.22553 39.1458 7.83317 39.1463H15.1665C15.7741 39.1458 16.3568 38.9042 16.7864 38.4746C17.2161 38.0449 17.4577 37.4623 17.4582 36.8547V29.5213C17.4577 28.9137 17.2161 28.3311 16.7864 27.9014C16.3568 27.4717 15.7741 27.2301 15.1665 27.2297H7.83317ZM37.1665 41.8963H29.8332C28.4965 41.8949 27.215 41.3632 26.2698 40.418C25.3246 39.4729 24.793 38.1913 24.7915 36.8547V29.5213C24.793 28.1846 25.3246 26.9031 26.2698 25.9579C27.215 25.0128 28.4965 24.4811 29.8332 24.4797H37.1665C38.5032 24.4811 39.7847 25.0128 40.7299 25.9579C41.6751 26.9031 42.2067 28.1846 42.2082 29.5213V36.8547C42.2067 38.1913 41.6751 39.4729 40.7299 40.418C39.7847 41.3632 38.5032 41.8949 37.1665 41.8963ZM29.8332 27.2297C29.2255 27.2301 28.6429 27.4717 28.2133 27.9014C27.7836 28.3311 27.542 28.9137 27.5415 29.5213V36.8547C27.542 37.4623 27.7836 38.0449 28.2133 38.4746C28.6429 38.9042 29.2255 39.1458 29.8332 39.1463H37.1665C37.7741 39.1458 38.3568 38.9042 38.7864 38.4746C39.2161 38.0449 39.4577 37.4623 39.4582 36.8547V29.5213C39.4577 28.9137 39.2161 28.3311 38.7864 27.9014C38.3568 27.4717 37.7741 27.2301 37.1665 27.2297H29.8332ZM37.1665 21.7297H29.8332C28.4965 21.7282 27.215 21.1966 26.2698 20.2514C25.3246 19.3062 24.793 18.0247 24.7915 16.688V9.35466C24.793 8.01797 25.3246 6.73645 26.2698 5.79127C27.215 4.84609 28.4965 4.31444 29.8332 4.31299H37.1665C38.5032 4.31444 39.7847 4.84609 40.7299 5.79127C41.6751 6.73645 42.2067 8.01797 42.2082 9.35466V16.688C42.2067 18.0247 41.6751 19.3062 40.7299 20.2514C39.7847 21.1966 38.5032 21.7282 37.1665 21.7297ZM29.8332 7.06299C29.2255 7.06347 28.6429 7.30507 28.2133 7.73474C27.7836 8.1644 27.542 8.74702 27.5415 9.35466V16.688C27.542 17.2956 27.7836 17.8782 28.2133 18.3079C28.6429 18.7376 29.2255 18.9792 29.8332 18.9797H37.1665C37.7741 18.9792 38.3568 18.7376 38.7864 18.3079C39.2161 17.8782 39.4577 17.2956 39.4582 16.688V9.35466C39.4577 8.74702 39.2161 8.1644 38.7864 7.73474C38.3568 7.30507 37.7741 7.06347 37.1665 7.06299H29.8332Z" fill="#1D1D35"/>
</g>
</g>
</g>
</g>
</svg>
