<svg width="32" height="33" viewBox="0 0 32 33" fill="none" xmlns="http://www.w3.org/2000/svg">
<g id="Plus">
<path id="arrow" d="M25.3336 16.1084V16.775C25.3336 17.1432 25.0352 17.4417 24.667 17.4417H17.0003V25.1084C17.0003 25.4765 16.7018 25.775 16.3336 25.775H15.667C15.2988 25.775 15.0003 25.4765 15.0003 25.1084V17.4417H7.33366C6.96547 17.4417 6.66699 17.1432 6.66699 16.775V16.1084C6.66699 15.7402 6.96547 15.4417 7.33366 15.4417H15.0003V7.77506C15.0003 7.40687 15.2988 7.1084 15.667 7.1084H16.3336C16.7018 7.1084 17.0003 7.40687 17.0003 7.77506V15.4417H24.667C25.0352 15.4417 25.3336 15.7402 25.3336 16.1084Z" fill="#1D1D35"/>
</g>
</svg>
