<svg width="24" height="25" viewBox="0 0 24 25" fill="none" xmlns="http://www.w3.org/2000/svg">
<g id="Icon / Twitter">
<path id="Vector" d="M20.9728 7.15884C20.5084 7.77836 19.947 8.31877 19.3103 8.7592C19.3103 8.92103 19.3103 9.08286 19.3103 9.25369C19.3154 12.1925 18.1415 15.0105 16.0518 17.0759C13.962 19.1413 11.1312 20.2813 8.19405 20.2403C6.49599 20.246 4.81967 19.8583 3.29642 19.1075C3.21428 19.0716 3.16131 18.9904 3.16162 18.9007V18.8018C3.16162 18.6727 3.26623 18.5681 3.39527 18.5681C5.06442 18.513 6.67402 17.9343 7.99634 16.9138C6.48553 16.8833 5.12619 15.9883 4.5006 14.6121C4.46901 14.537 4.47884 14.4507 4.52657 14.3846C4.57429 14.3185 4.653 14.2821 4.73425 14.2885C5.19342 14.3346 5.65718 14.2919 6.1002 14.1626C4.43239 13.8164 3.17921 12.4318 2.99986 10.7371C2.99349 10.6558 3.02992 10.5771 3.096 10.5293C3.16207 10.4816 3.24824 10.4717 3.32338 10.5034C3.77094 10.7009 4.25409 10.8049 4.74324 10.809C3.28184 9.8499 2.65061 8.02549 3.20655 6.36766C3.26394 6.20657 3.40181 6.08756 3.5695 6.05438C3.73718 6.02119 3.90996 6.07872 4.02432 6.20583C5.99639 8.30469 8.70604 9.5554 11.5819 9.69423C11.5083 9.40029 11.4721 9.0982 11.4741 8.79516C11.501 7.20616 12.4842 5.79065 13.9634 5.21131C15.4425 4.63198 17.1249 5.00347 18.223 6.15188C18.9714 6.00929 19.695 5.75789 20.3707 5.40565C20.4202 5.37475 20.483 5.37475 20.5325 5.40565C20.5634 5.45517 20.5634 5.51796 20.5325 5.56748C20.2052 6.31696 19.6523 6.94556 18.9509 7.36563C19.5651 7.2944 20.1685 7.14951 20.7482 6.93408C20.797 6.90086 20.8611 6.90086 20.9099 6.93408C20.9508 6.95278 20.9814 6.98855 20.9935 7.03186C21.0056 7.07517 20.998 7.12162 20.9728 7.15884Z" fill="#EEF0F3"/>
</g>
</svg>
